<svg id="图层_1" data-name="图层 1" xmlns="http://www.w3.org/2000/svg" viewBox="0 0 394 396"><defs><style>.cls-1{fill:#c65306;}</style></defs><title>画板 1</title><path class="cls-1" d="M175.5,17.6C99.8,27.8,39.2,82,20.5,156S32.4,309.4,95.9,352.1c63,42.4,143.2,42.4,206.2,0,37.5-25.2,64.2-63.4,75.4-108.1,18.7-73.9-11.9-153.4-75.4-196.1C264.6,22.7,218.8,11.7,175.5,17.6Zm55,7.4c17.2,3.4,28.1,6.7,42.4,13,42.9,18.8,78.1,56.1,95,100.5,6,15.7,11.1,38.7,11.1,49.7,0,8.8-1.5,8-2.4-1.3-1.8-17.5-12.3-44.5-25.3-64.8-12-18.7-31.1-37.9-51.3-51.5-11.1-7.5-31.8-17.6-45-21.9-39.8-13.1-84.4-9.9-121.4,8.5-7.1,3.5-10.8,5.8-22.4,13.7-5.7,3.8-20.6,18.7-26.5,26.4A148.6,148.6,0,0,0,54,188.5q0,43.8,24.1,79.8c6.6,9.9,21.9,26,32.3,34.1,30.1,23.4,67.9,33.6,103.6,28.1,47-7.2,84-40.1,96.4-85.6,7.2-26.4,4.9-56.8-6.1-78.4C279.6,117.4,225.8,94,176.6,111c-21.7,7.4-40.6,25-50.1,46.3-4.7,10.8-6.6,19.5-7.2,33.2-.6,14.7,1.1,24,6.5,35.7,13.5,29.1,47.5,46.2,77.9,39.2,15-3.4,29.4-14,37.3-27.3,7.1-11.9,10-31.1,6.6-42.6-7.1-23.5-37.9-33.4-54.9-17.6-3.7,3.4-6.2,8.3-7.6,14.9-1.6,7.6-1.5,7.9,2.2,4.5,4.6-4.3,6.9-5.3,12.7-5.3,17.8,0,24,18.6,10.9,32.5-7,7.4-13.1,10-23.9,10-7.1,0-9.4-.4-14.2-2.7a37.58,37.58,0,0,1-20.7-24.1c-1.8-6.4-.9-21.3,1.8-29.9,5.8-18.2,21.8-33.2,41.3-38.6,8.5-2.3,25.1-2.2,33.3.2,25.2,7.5,44.7,27.2,51,51.6,2.4,9,2.5,29.2.2,38.5-5.2,21.4-15.4,37.8-31.3,50.5-23.9,19-57.6,24.3-88.7,14a109.49,109.49,0,0,1-59-47.9C90.5,229,87,216.4,86.3,195.3,85.4,168,91,146.9,105,125.6a117.27,117.27,0,0,1,55.5-44.9c27.3-10.5,58.8-11,88-1.2,22,7.4,39.3,18.2,56.6,35.5,33.7,33.6,47.1,76.3,39.3,125C332,316.9,263.5,369.7,184.7,363.1c-52-4.3-96.4-29.1-129-71.8A167.22,167.22,0,0,1,26.6,231c-3.5-13.2-3.4-13-3.5-10-.1,4,2.8,19.7,5.4,29,8.7,31.2,23.8,56.6,47.4,80,8.2,8,8.6,8.5,2.7,3.5-14.1-12.2-29.4-32-38.6-50.2-8.1-16.1-11.7-27.3-18.1-56.1-.5-2.3-.9-13.6-.9-25,0-18.2.3-22.4,2.5-33.3q11-55.2,49.6-93.8C98.5,49.7,130,33,166.2,25.5,181.9,22.3,215.4,22,230.5,25Zm-.2,20c24.3,4.2,50.1,15.6,63.7,28l3.5,3.2L294,74.1l-12-6.9a144.4,144.4,0,0,0-50-17.8c-13.7-2.2-40.2-1.5-53.1,1.5C125.6,63.1,84.3,100.9,68.7,152c-5,16.2-6.2,24.2-6.2,42.5,0,17.3,2,30.2,7,45.9,1.4,4.4,2.4,8.1,2.2,8.3-.7.7-6.5-13.3-8.6-20.7-8.5-30.4-6.2-65.4,6.3-95.4,5-12,8.9-18.8,17.3-30.3a143.78,143.78,0,0,1,86.9-56.2c12.6-2.6,14-2.7,31-2.9A128,128,0,0,1,230.3,45Zm-4.5,65.6c4.2.9,8.8,2.2,10.2,3,2.4,1.4,2.3,1.4-2,.9-13.7-1.6-29.9-1.7-37.1-.1a84.78,84.78,0,0,0-41.3,22.1c-16,15.8-24.2,33.7-25.3,55.6-1.1,21,3.7,36,16.4,51.5,2.4,3.1,4.2,5.9,3.8,6.2s-3.4-2.4-6.8-6c-7.2-7.6-14.5-21.3-17.3-32.3-2.1-8.5-2.3-25.4-.5-34.5,7.1-35,34.5-61.3,70.1-67.3C202.3,108.6,218.7,109.1,225.8,110.6ZM329.5,133A154.51,154.51,0,0,1,353,190c2.5,12.4,3.1,37.8,1.1,50-3.9,24.1-13.5,48.1-26.9,66.9-7,9.9-23.7,26.7-33.7,33.8-11.1,8-29.3,17.2-41.6,21.1-17.4,5.6-29.5,7.5-48.7,7.5-9.5,0-17.7-.4-18.2-.9s5.2-1,14.3-1c37-.3,70.1-12.6,98.3-36.5,17.4-14.7,32.6-35.5,41.7-56.9a151.08,151.08,0,0,0,11.6-70.3c-2.1-26.5-9.9-49.8-23.6-70.4-3.1-4.9-6.6-10.2-7.6-11.8l-1.9-3,2.7,2.5C322,122.4,326,127.8,329.5,133Zm-48.6,42.2c4.1,7.6,8.1,21,9.1,30.5a94.66,94.66,0,0,1-9.9,52c-8.3,16.4-23.9,31.7-41,40.3-8.6,4.3-12.7,5.7-24.1,8.2-16.5,3.6-39.8,1.3-54.3-5.3-5.4-2.4-2.9-2.4,5,.1s23.6,4.1,33.3,3.4a86.37,86.37,0,0,0,29-7.2c50.9-21.4,73.9-82,47.8-126.5a33.71,33.71,0,0,1-2.8-5.5C273.1,163.9,278.5,170.8,280.9,175.2Z"/></svg>